# xmcd
#
# Track frame offsets:
#	150
#	19020
#	35335
#	62943
#	84169
#	100316
#	119625
#	132742
#	149562
#	165269
#	187502
#	221640
#	241647
#
# Disc length: 3449 seconds
#
# Revision: 0
# Processed by: cddbd v1.4PL0 Copyright (c) Steve Scherf et al.
# Submitted via: dBpowerAMP V4.0
#
DISCID=ad0d770d
DTITLE=SHANIA TWAIN - LIVE IN DALLAS 1998 DISK 1
DYEAR=1998
DGENRE=Country
TTITLE0=MAN I FEEL LIKE A WOMAN
TTITLE1=HONEY I'M HOME
TTITLE2=YOU WIN MY LOVE
TTITLE3=WHOSE BED HAVE YOUR BOOTS BEEN UNDER
TTITLE4=YOU'RE STILL THE ONE
TTITLE5=I WONT LEAVE YOU LONELY
TTITLE6=COME ON OVER
TTITLE7=LOVE GETS ME EVERY TIME
TTITLE8=I'M HOLDIN' ON TO LOVE
TTITLE9=WHEN
TTITLE10=MELODY OF BALLADS
TTITLE11=THAT DON'T IMPRESS ME MUCH
TTITLE12=IF IT DON'T TAKE TWO
EXTD=
EXTT0=
EXTT1=
EXTT2=
EXTT3=
EXTT4=
EXTT5=
EXTT6=
EXTT7=
EXTT8=
EXTT9=
EXTT10=
EXTT11=
EXTT12=
PLAYORDER=
